#N canvas 1035 405 450 300 12;
#X obj 117 79 achordion~;
#X obj 117 129 dac~;
#X floatatom 117 55 5 0 0 0 - - -;
#X obj 117 104 *~ 0.3;
#X connect 0 0 3 0;
#X connect 2 0 0 0;
#X connect 3 0 1 0;
#X connect 3 0 1 1;
