#N canvas 58 130 1461 860 12;
#X obj 117 374 achordion~;
#X obj 117 424 dac~;
#X obj 122 80 hsl 256 15 2 8 0 0 empty empty empty -2 -8 0 10 -262144
-1 -1 10100 1;
#X obj 120 190 hsl 256 15 0 1 0 0 mode_\$1 empty empty -2 -8 0 10 -262144
-1 -1 0 1;
#X obj 120 145 hsl 256 15 0 1 0 0 mode_\$1 empty empty -2 -8 0 10 -262144
-1 -1 0 1;
#X obj 120 280 hsl 500 15 0 1 0 0 mode_\$1 empty empty -2 -8 0 10 -262144
-1 -1 49700 1;
#X msg 117 300 wavetable \$1;
#X text 383 77 chord_root;
#X text 382 188 scale_mode;
#X text 382 143 scale_root;
#X msg 117 165 scale_root \$1;
#X msg 117 210 scale_mode \$1;
#X obj 120 100 hsl 256 15 0 1 0 0 mode_\$1 empty empty -2 -8 0 10 -262144
-1 -1 16600 1;
#X text 382 98 chord_degrees;
#X msg 117 120 chord_degrees \$1;
#X obj 120 325 hsl 256 15 0 1 0 0 mode_\$1 empty empty -2 -8 0 10 -262144
-1 -1 20200 1;
#X text 383 323 detune;
#X msg 117 345 detune \$1;
#X obj 117 399 *~ 0.6;
#X obj 120 235 hsl 256 15 0 1 0 0 mode_\$1 empty empty -2 -8 0 10 -262144
-1 -1 10700 1;
#X msg 117 255 wavetable_bank \$1;
#X text 382 233 wavetable_bank;
#X floatatom 32 382 5 0 0 0 - - -;
#X obj 32 332 + 1;
#X obj 15 206 float;
#X obj 61 205 + 1;
#X obj 15 181 bng 15 250 50 0 empty empty empty 17 7 0 10 -262144 -1
-1;
#X msg 47 171 0;
#X obj 355 741 - 1;
#X obj 644 90 bng 15 250 50 0 empty empty empty 17 7 0 10 -262144 -1
-1;
#X obj 622 188 line;
#X obj 587 12 bng 15 250 50 0 empty empty empty 17 7 0 10 -262144 -1
-1;
#X obj 58 592 / 44;
#X obj 16 232 / 44;
#X msg 584 677 1;
#X msg 432 640 2;
#X msg 1034 313 3;
#X msg 491 542 4;
#X msg 995 313 5;
#X msg 480 697 6;
#X msg 1077 350 7;
#X msg 335 626 8;
#X msg 382 633 9;
#X msg 769 268 10;
#X msg 580 619 11;
#X msg 589 548 12;
#X msg 346 566 13;
#X msg 946 259 14;
#X msg 629 556 15;
#X msg 502 605 16;
#X msg 492 572 17;
#X msg 381 671 18;
#X msg 418 691 19;
#X msg 616 520 20;
#X msg 588 582 21;
#X msg 844 268 22;
#X msg 354 597 23;
#X msg 224 572 24;
#X msg 526 677 25;
#X msg 456 675 26;
#X msg 302 567 27;
#X msg 444 518 28;
#X msg 622 595 29;
#X msg 438 561 30;
#X msg 436 600 31;
#X msg 299 525 32;
#X msg 894 262 33;
#X msg 808 265 34;
#X msg 309 598 35;
#X msg 517 637 36;
#X msg 522 577 37;
#X msg 1121 351 38;
#X msg 389 600 39;
#X msg 390 569 40;
#X msg 386 526 41;
#X msg 563 532 42;
#X msg 268 568 43;
#X msg 488 640 44;
#X text 877 42 1 sort by quality 2 compare low frequency response 3
compare high frequency 4 compare with low chord 5 compare with high
chord 6 compare with bass detune 7 compare with equal detune;
#X text 1156 351 noise;
#X text 1004 253 mild;
#X text 1086 306 distorted;
#X obj 690 118 delay 250;
#X obj 592 36 metro 500;
#X msg 622 130 1 200;
#X msg 691 151 0 200;
#X obj 32 307 * 8;
#X connect 0 0 18 0;
#X connect 2 0 0 0;
#X connect 3 0 11 0;
#X connect 4 0 10 0;
#X connect 5 0 6 0;
#X connect 5 0 86 0;
#X connect 6 0 0 0;
#X connect 10 0 0 0;
#X connect 11 0 0 0;
#X connect 12 0 14 0;
#X connect 14 0 0 0;
#X connect 15 0 17 0;
#X connect 17 0 0 0;
#X connect 18 0 1 0;
#X connect 18 0 1 1;
#X connect 19 0 20 0;
#X connect 20 0 0 0;
#X connect 23 0 22 0;
#X connect 24 0 25 0;
#X connect 24 0 33 0;
#X connect 25 0 24 1;
#X connect 26 0 24 0;
#X connect 27 0 24 1;
#X connect 28 0 32 0;
#X connect 29 0 84 0;
#X connect 29 0 82 0;
#X connect 31 0 83 0;
#X connect 32 0 6 0;
#X connect 32 0 86 0;
#X connect 33 0 6 0;
#X connect 33 0 86 0;
#X connect 34 0 28 0;
#X connect 35 0 28 0;
#X connect 36 0 28 0;
#X connect 37 0 28 0;
#X connect 38 0 28 0;
#X connect 39 0 28 0;
#X connect 40 0 28 0;
#X connect 41 0 28 0;
#X connect 42 0 28 0;
#X connect 43 0 28 0;
#X connect 44 0 28 0;
#X connect 45 0 28 0;
#X connect 46 0 28 0;
#X connect 47 0 28 0;
#X connect 48 0 28 0;
#X connect 49 0 28 0;
#X connect 50 0 28 0;
#X connect 51 0 28 0;
#X connect 52 0 28 0;
#X connect 53 0 28 0;
#X connect 54 0 28 0;
#X connect 55 0 28 0;
#X connect 56 0 28 0;
#X connect 57 0 28 0;
#X connect 58 0 28 0;
#X connect 59 0 28 0;
#X connect 60 0 28 0;
#X connect 61 0 28 0;
#X connect 62 0 28 0;
#X connect 63 0 28 0;
#X connect 64 0 28 0;
#X connect 65 0 28 0;
#X connect 66 0 28 0;
#X connect 67 0 28 0;
#X connect 68 0 28 0;
#X connect 69 0 28 0;
#X connect 70 0 28 0;
#X connect 71 0 28 0;
#X connect 72 0 28 0;
#X connect 73 0 28 0;
#X connect 74 0 28 0;
#X connect 75 0 28 0;
#X connect 76 0 28 0;
#X connect 77 0 28 0;
#X connect 82 0 85 0;
#X connect 83 0 29 0;
#X connect 84 0 30 0;
#X connect 85 0 30 0;
#X connect 86 0 23 0;
