#N canvas 1035 405 450 300 12;
#X obj 117 79 achordion~;
#X obj 117 129 dac~;
#X obj 117 104 *~ 0.3;
#X obj 120 56 hsl 256 15 2 8 0 0 empty empty empty -2 -8 0 10 -262144
-1 -1 14500 1;
#X connect 0 0 2 0;
#X connect 2 0 1 0;
#X connect 2 0 1 1;
#X connect 3 0 0 0;
