#N canvas 403 186 992 719 12;
#X obj 117 419 achordion~;
#X obj 117 469 dac~;
#X obj 120 80 hsl 256 15 2 8 0 0 empty empty empty -2 -8 0 10 -262144
-1 -1 0 1;
#X obj 120 190 hsl 256 15 0 1 0 0 mode_\$1 empty empty -2 -8 0 10 -262144
-1 -1 0 1;
#X obj 120 145 hsl 256 15 0 1 0 0 mode_\$1 empty empty -2 -8 0 10 -262144
-1 -1 0 1;
#X obj 120 280 hsl 256 15 0 1 0 0 mode_\$1 empty empty -2 -8 0 10 -262144
-1 -1 0 1;
#X text 382 278 wavetable;
#X msg 117 300 wavetable \$1;
#X text 383 77 chord_root;
#X text 382 188 scale_mode;
#X text 382 143 scale_root;
#X msg 117 165 scale_root \$1;
#X msg 117 210 scale_mode \$1;
#X obj 120 100 hsl 256 15 0 1 0 0 mode_\$1 empty empty -2 -8 0 10 -262144
-1 -1 0 1;
#X text 382 98 chord_degrees;
#X msg 117 120 chord_degrees \$1;
#X obj 120 325 hsl 256 15 0 1 0 0 mode_\$1 empty empty -2 -8 0 10 -262144
-1 -1 0 1;
#X text 383 323 detune;
#X msg 117 345 detune \$1;
#X obj 117 444 *~ 0.6;
#X obj 120 235 hsl 256 15 0 1 0 0 mode_\$1 empty empty -2 -8 0 10 -262144
-1 -1 0 1;
#X msg 117 255 wavetable_bank \$1;
#X text 382 233 wavetable_bank;
#X obj 120 35 hsl 256 15 0 8 0 0 empty empty empty -2 -8 0 10 -262144
-1 -1 0 1;
#X text 383 31 solo;
#X msg 117 55 solo \$1;
#X obj 120 371 hsl 256 15 0 1 0 0 mode_\$1 empty empty -2 -8 0 10 -262144
-1 -1 0 1;
#X msg 117 391 style \$1;
#X text 383 369 style;
#X connect 0 0 19 0;
#X connect 2 0 0 0;
#X connect 3 0 12 0;
#X connect 4 0 11 0;
#X connect 5 0 7 0;
#X connect 7 0 0 0;
#X connect 11 0 0 0;
#X connect 12 0 0 0;
#X connect 13 0 15 0;
#X connect 15 0 0 0;
#X connect 16 0 18 0;
#X connect 18 0 0 0;
#X connect 19 0 1 0;
#X connect 19 0 1 1;
#X connect 20 0 21 0;
#X connect 21 0 0 0;
#X connect 23 0 25 0;
#X connect 25 0 0 0;
#X connect 26 0 27 0;
#X connect 27 0 0 0;
